<svg width="109" height="110" viewBox="0 0 109 110" fill="none" xmlns="http://www.w3.org/2000/svg">
<g filter="url(#filter0_di_11341_40422)">
<circle cx="54.5" cy="41.5" r="35.5" fill="url(#paint0_linear_11341_40422)"/>
</g>
<mask id="mask0_11341_40422" style="mask-type:alpha" maskUnits="userSpaceOnUse" x="19" y="6" width="71" height="71">
<circle cx="54.5" cy="41.5" r="35.5" fill="#364A91"/>
</mask>
<g mask="url(#mask0_11341_40422)">
<path d="M46.57 34.444V30.196C48.082 29.14 50.026 28.612 52.402 28.612C55.138 28.612 57.322 29.416 58.954 31.024C60.586 32.608 61.402 34.672 61.402 37.216C61.402 38.344 61.222 39.448 60.862 40.528C60.526 41.608 59.938 42.76 59.098 43.984C58.282 45.208 57.562 46.204 56.938 46.972C56.338 47.74 55.39 48.868 54.094 50.356C53.998 50.476 53.914 50.572 53.842 50.644C53.794 50.692 53.722 50.776 53.626 50.896C53.554 50.992 53.482 51.076 53.41 51.148H62.59V55H45.202C49.306 50.296 51.862 47.272 52.87 45.928C55.174 42.856 56.422 40.252 56.614 38.116C56.71 37.132 56.614 36.244 56.326 35.452C55.678 33.676 54.19 32.788 51.862 32.788C49.798 32.788 48.034 33.34 46.57 34.444Z" fill="url(#paint1_linear_11341_40422)"/>
<circle cx="54.5" cy="41.5" r="30" stroke="url(#paint2_linear_11341_40422)" stroke-width="3"/>
</g>
<defs>
<filter id="filter0_di_11341_40422" x="0.140625" y="0.453126" width="108.719" height="108.719" filterUnits="userSpaceOnUse" color-interpolation-filters="sRGB">
<feFlood flood-opacity="0" result="BackgroundImageFix"/>
<feColorMatrix in="SourceAlpha" type="matrix" values="0 0 0 0 0 0 0 0 0 0 0 0 0 0 0 0 0 0 127 0" result="hardAlpha"/>
<feOffset dy="13.3125"/>
<feGaussianBlur stdDeviation="9.42969"/>
<feComposite in2="hardAlpha" operator="out"/>
<feColorMatrix type="matrix" values="0 0 0 0 0 0 0 0 0 0 0 0 0 0 0 0 0 0 0.25 0"/>
<feBlend mode="normal" in2="BackgroundImageFix" result="effect1_dropShadow_11341_40422"/>
<feBlend mode="normal" in="SourceGraphic" in2="effect1_dropShadow_11341_40422" result="shape"/>
<feColorMatrix in="SourceAlpha" type="matrix" values="0 0 0 0 0 0 0 0 0 0 0 0 0 0 0 0 0 0 127 0" result="hardAlpha"/>
<feOffset dx="2" dy="2"/>
<feGaussianBlur stdDeviation="2"/>
<feComposite in2="hardAlpha" operator="arithmetic" k2="-1" k3="1"/>
<feColorMatrix type="matrix" values="0 0 0 0 1 0 0 0 0 1 0 0 0 0 1 0 0 0 0.25 0"/>
<feBlend mode="normal" in2="shape" result="effect2_innerShadow_11341_40422"/>
</filter>
<linearGradient id="paint0_linear_11341_40422" x1="19" y1="6" x2="90" y2="77" gradientUnits="userSpaceOnUse">
<stop stop-color="#AABDFF"/>
<stop offset="0.317708" stop-color="#5C70B4"/>
<stop offset="0.682292" stop-color="#364A90"/>
<stop offset="1" stop-color="#0F193C"/>
</linearGradient>
<linearGradient id="paint1_linear_11341_40422" x1="54.5" y1="22" x2="54.5" y2="58" gradientUnits="userSpaceOnUse">
<stop offset="0.402778" stop-color="white"/>
<stop offset="1" stop-color="white" stop-opacity="0.6"/>
</linearGradient>
<linearGradient id="paint2_linear_11341_40422" x1="23" y1="10" x2="86" y2="73" gradientUnits="userSpaceOnUse">
<stop stop-color="#0F193C"/>
<stop offset="0.625" stop-color="#364A90"/>
<stop offset="0.911458" stop-color="#AABDFF"/>
</linearGradient>
</defs>
</svg>
