<svg width="109" height="110" viewBox="0 0 109 110" fill="none" xmlns="http://www.w3.org/2000/svg">
<g filter="url(#filter0_di_11341_40427)">
<circle cx="54.5" cy="41.5" r="35.5" fill="url(#paint0_linear_11341_40427)"/>
</g>
<mask id="mask0_11341_40427" style="mask-type:alpha" maskUnits="userSpaceOnUse" x="19" y="6" width="71" height="71">
<circle cx="54.5" cy="41.5" r="35.5" fill="#364A91"/>
</mask>
<g mask="url(#mask0_11341_40427)">
<circle cx="54.5" cy="41.5" r="30" stroke="url(#paint1_linear_11341_40427)" stroke-width="3"/>
<path d="M54.5709 38.944C55.6269 38.248 56.1549 37.336 56.1549 36.208C56.1549 35.08 55.7229 34.204 54.8589 33.58C54.0189 32.932 52.8909 32.608 51.4749 32.608C49.6269 32.608 47.8389 33.028 46.1109 33.868V29.836C47.8869 29.02 49.9029 28.612 52.1589 28.612C54.8229 28.612 56.9349 29.26 58.4949 30.556C60.0549 31.852 60.8349 33.556 60.8349 35.668C60.8349 37.084 60.4149 38.32 59.5749 39.376C58.7349 40.432 57.6669 41.2 56.3709 41.68C57.7869 42.112 58.9509 42.904 59.8629 44.056C60.7989 45.184 61.2669 46.552 61.2669 48.16C61.2669 50.368 60.4149 52.144 58.7109 53.488C57.0309 54.808 54.8469 55.468 52.1589 55.468C49.7589 55.468 47.5989 55 45.6789 54.064V50.032C47.5989 50.992 49.6389 51.472 51.7989 51.472C53.2389 51.472 54.3909 51.124 55.2549 50.428C56.1429 49.732 56.5869 48.82 56.5869 47.692C56.5869 46.348 56.0469 45.304 54.9669 44.56C53.8869 43.816 52.3629 43.444 50.3949 43.444H49.5309V39.988H50.6469C52.2309 39.988 53.5389 39.64 54.5709 38.944Z" fill="url(#paint2_linear_11341_40427)"/>
</g>
<defs>
<filter id="filter0_di_11341_40427" x="0.140625" y="0.453126" width="108.719" height="108.719" filterUnits="userSpaceOnUse" color-interpolation-filters="sRGB">
<feFlood flood-opacity="0" result="BackgroundImageFix"/>
<feColorMatrix in="SourceAlpha" type="matrix" values="0 0 0 0 0 0 0 0 0 0 0 0 0 0 0 0 0 0 127 0" result="hardAlpha"/>
<feOffset dy="13.3125"/>
<feGaussianBlur stdDeviation="9.42969"/>
<feComposite in2="hardAlpha" operator="out"/>
<feColorMatrix type="matrix" values="0 0 0 0 0 0 0 0 0 0 0 0 0 0 0 0 0 0 0.25 0"/>
<feBlend mode="normal" in2="BackgroundImageFix" result="effect1_dropShadow_11341_40427"/>
<feBlend mode="normal" in="SourceGraphic" in2="effect1_dropShadow_11341_40427" result="shape"/>
<feColorMatrix in="SourceAlpha" type="matrix" values="0 0 0 0 0 0 0 0 0 0 0 0 0 0 0 0 0 0 127 0" result="hardAlpha"/>
<feOffset dx="2" dy="2"/>
<feGaussianBlur stdDeviation="2"/>
<feComposite in2="hardAlpha" operator="arithmetic" k2="-1" k3="1"/>
<feColorMatrix type="matrix" values="0 0 0 0 1 0 0 0 0 1 0 0 0 0 1 0 0 0 0.25 0"/>
<feBlend mode="normal" in2="shape" result="effect2_innerShadow_11341_40427"/>
</filter>
<linearGradient id="paint0_linear_11341_40427" x1="19" y1="6" x2="90" y2="77" gradientUnits="userSpaceOnUse">
<stop stop-color="#AABDFF"/>
<stop offset="0.317708" stop-color="#5C70B4"/>
<stop offset="0.682292" stop-color="#364A90"/>
<stop offset="1" stop-color="#0F193C"/>
</linearGradient>
<linearGradient id="paint1_linear_11341_40427" x1="23" y1="10" x2="86" y2="73" gradientUnits="userSpaceOnUse">
<stop stop-color="#0F193C"/>
<stop offset="0.625" stop-color="#364A90"/>
<stop offset="0.911458" stop-color="#AABDFF"/>
</linearGradient>
<linearGradient id="paint2_linear_11341_40427" x1="54" y1="22" x2="54" y2="58" gradientUnits="userSpaceOnUse">
<stop offset="0.402778" stop-color="white"/>
<stop offset="1" stop-color="white" stop-opacity="0.6"/>
</linearGradient>
</defs>
</svg>
