<svg width="1920" height="337" viewBox="0 0 1920 337" fill="none" xmlns="http://www.w3.org/2000/svg">
<mask id="mask0_805_9846" style="mask-type:alpha" maskUnits="userSpaceOnUse" x="0" y="0" width="1920" height="337">
<rect width="1920" height="337" fill="#D9D9D9"/>
</mask>
<g mask="url(#mask0_805_9846)">
<g opacity="0.6" filter="url(#filter0_f_805_9846)">
<path d="M-58.9999 -28.206C-58.9999 110.955 278.14 180.541 355.335 189.314C403.42 196.231 452.428 203.384 501.455 194.569C550.162 185.812 598.869 161.291 647.576 147.28C696.282 133.268 744.989 129.765 793.696 133.268C844.303 136.908 892.16 147.506 939.816 157.788C1192.15 222.477 1718.07 107.447 1927.6 282.859" stroke="#802CFF" stroke-width="10" stroke-linecap="round"/>
</g>
<g filter="url(#filter1_f_805_9846)">
<path d="M-58.9999 -28.206C-58.9999 110.955 278.14 180.541 355.335 189.314C403.42 196.231 452.428 203.384 501.455 194.569C550.162 185.812 598.869 161.291 647.576 147.28C696.282 133.268 744.989 129.765 793.696 133.268C844.303 136.908 892.16 147.506 939.816 157.788C1192.15 222.477 1718.07 107.447 1927.6 282.859" stroke="#802CFF" stroke-width="6" stroke-linecap="round"/>
</g>
<path d="M-58.9999 -28.206C-58.9999 110.955 278.14 180.541 355.335 189.314C403.42 196.231 452.428 203.384 501.455 194.569C550.162 185.812 598.869 161.291 647.576 147.28C696.282 133.268 744.989 129.765 793.696 133.268C844.303 136.908 892.16 147.506 939.816 157.788C1192.15 222.477 1718.07 107.447 1927.6 282.859" stroke="white" stroke-width="2" stroke-linecap="round"/>
<g opacity="0.6" filter="url(#filter2_f_805_9846)">
<path d="M-52.6992 390.443C-8.58748 218.442 238.753 188.719 355.334 210.33C402.99 218.267 450.847 226.448 501.454 229.258C550.161 231.962 598.868 229.258 647.575 218.442C696.281 207.626 744.988 188.698 793.695 181.938C842.722 175.133 891.73 180.655 939.815 185.994C1204.05 228.742 1675.54 284.026 1979.59 158.898" stroke="#802CFF" stroke-width="10" stroke-linecap="round"/>
</g>
<g filter="url(#filter3_f_805_9846)">
<path d="M-52.6992 390.443C-8.58748 218.442 238.753 188.719 355.334 210.33C402.99 218.267 450.847 226.448 501.454 229.258C550.161 231.962 598.868 229.258 647.575 218.442C696.281 207.626 744.988 188.698 793.695 181.938C842.722 175.133 891.73 180.655 939.815 185.994C1204.05 228.742 1675.54 284.026 1979.59 158.898" stroke="#802CFF" stroke-width="6" stroke-linecap="round"/>
</g>
<path d="M-52.6992 390.443C-8.58748 218.442 238.753 188.719 355.334 210.33C402.99 218.267 450.847 226.448 501.454 229.258C550.161 231.962 598.868 229.258 647.575 218.442C696.281 207.626 744.988 188.698 793.695 181.938C842.722 175.133 891.73 180.655 939.815 185.994C1204.05 228.742 1675.54 284.026 1979.59 158.898" stroke="white" stroke-width="2" stroke-linecap="round"/>
<g filter="url(#filter4_f_805_9846)">
<path d="M-16.4629 150.714C202.52 50.1438 232 119.509 345.883 157.376C412.5 176.294 441.396 182.286 492.004 186.628C540.71 190.807 589.417 186.628 638.124 169.912C686.83 153.197 735.537 146.213 784.244 135.766C833.271 125.25 882.28 133.783 930.364 142.034C1009.13 158.75 1193.14 169.912 1299.01 169.912C1404.88 169.912 1785.03 157.376 1947.3 66.5156" stroke="url(#paint0_linear_805_9846)" stroke-width="40" stroke-linecap="round"/>
</g>
<g filter="url(#filter5_f_805_9846)">
<path d="M-16.4629 150.714C202.52 50.1438 231 119.765 345.883 157.376C418 176.294 444.5 186.628 492.004 186.628C539.507 186.628 589.417 186.628 638.124 169.912C686.83 153.197 735.537 146.213 784.244 135.766C833.271 125.25 882.28 133.783 930.364 142.034C1009.13 158.75 1193.14 169.912 1299.01 169.912C1404.88 169.912 1785.03 157.376 1947.3 66.5156" stroke="url(#paint1_linear_805_9846)" stroke-width="10" stroke-linecap="round"/>
</g>
<g filter="url(#filter6_f_805_9846)">
<path d="M-16.4629 150.714C202.52 50.1438 222.5 115.055 345.883 158.86C446.5 182.232 453 186.628 492.004 186.628C533.273 186.628 589.417 186.628 638.124 169.912C686.83 153.197 735.537 146.213 784.244 135.766C833.271 125.25 882.28 133.783 930.364 142.034C1009.13 158.75 1193.14 169.912 1299.01 169.912C1404.88 169.912 1785.03 157.376 1947.3 66.5156" stroke="url(#paint2_linear_805_9846)" stroke-width="14" stroke-linecap="round"/>
</g>
<path d="M-16.4629 150.714C202.52 50.1438 234.5 119.765 329.5 153.283C413.637 182.968 468 185.201 492.004 186.628C516.007 188.055 589.417 186.628 638.124 169.912C686.83 153.197 735.537 146.213 784.244 135.766C833.271 125.25 882.28 133.783 930.364 142.034C1009.13 158.75 1193.14 169.912 1299.01 169.912C1404.88 169.912 1785.03 157.376 1947.3 66.5156" stroke="url(#paint3_linear_805_9846)" stroke-width="6" stroke-linecap="round"/>
</g>
<defs>
<filter id="filter0_f_805_9846" x="-94" y="-63.207" width="2056.6" height="381.066" filterUnits="userSpaceOnUse" color-interpolation-filters="sRGB">
<feFlood flood-opacity="0" result="BackgroundImageFix"/>
<feBlend mode="normal" in="SourceGraphic" in2="BackgroundImageFix" result="shape"/>
<feGaussianBlur stdDeviation="15" result="effect1_foregroundBlur_805_9846"/>
</filter>
<filter id="filter1_f_805_9846" x="-68" y="-37.207" width="2004.6" height="329.066" filterUnits="userSpaceOnUse" color-interpolation-filters="sRGB">
<feFlood flood-opacity="0" result="BackgroundImageFix"/>
<feBlend mode="normal" in="SourceGraphic" in2="BackgroundImageFix" result="shape"/>
<feGaussianBlur stdDeviation="3" result="effect1_foregroundBlur_805_9846"/>
</filter>
<filter id="filter2_f_805_9846" x="-87.7012" y="123.898" width="2102.29" height="301.547" filterUnits="userSpaceOnUse" color-interpolation-filters="sRGB">
<feFlood flood-opacity="0" result="BackgroundImageFix"/>
<feBlend mode="normal" in="SourceGraphic" in2="BackgroundImageFix" result="shape"/>
<feGaussianBlur stdDeviation="15" result="effect1_foregroundBlur_805_9846"/>
</filter>
<filter id="filter3_f_805_9846" x="-61.6992" y="149.898" width="2050.29" height="249.547" filterUnits="userSpaceOnUse" color-interpolation-filters="sRGB">
<feFlood flood-opacity="0" result="BackgroundImageFix"/>
<feBlend mode="normal" in="SourceGraphic" in2="BackgroundImageFix" result="shape"/>
<feGaussianBlur stdDeviation="3" result="effect1_foregroundBlur_805_9846"/>
</filter>
<filter id="filter4_f_805_9846" x="-186.467" y="-103.488" width="2303.77" height="461.625" filterUnits="userSpaceOnUse" color-interpolation-filters="sRGB">
<feFlood flood-opacity="0" result="BackgroundImageFix"/>
<feBlend mode="normal" in="SourceGraphic" in2="BackgroundImageFix" result="shape"/>
<feGaussianBlur stdDeviation="75" result="effect1_foregroundBlur_805_9846"/>
</filter>
<filter id="filter5_f_805_9846" x="-61.4648" y="21.5156" width="2053.76" height="210.113" filterUnits="userSpaceOnUse" color-interpolation-filters="sRGB">
<feFlood flood-opacity="0" result="BackgroundImageFix"/>
<feBlend mode="normal" in="SourceGraphic" in2="BackgroundImageFix" result="shape"/>
<feGaussianBlur stdDeviation="20" result="effect1_foregroundBlur_805_9846"/>
</filter>
<filter id="filter6_f_805_9846" x="-37.4648" y="45.5156" width="2005.76" height="162.113" filterUnits="userSpaceOnUse" color-interpolation-filters="sRGB">
<feFlood flood-opacity="0" result="BackgroundImageFix"/>
<feBlend mode="normal" in="SourceGraphic" in2="BackgroundImageFix" result="shape"/>
<feGaussianBlur stdDeviation="7" result="effect1_foregroundBlur_805_9846"/>
</filter>
<linearGradient id="paint0_linear_805_9846" x1="1659.78" y1="66.5156" x2="107.01" y2="338.73" gradientUnits="userSpaceOnUse">
<stop stop-color="#00A3FF"/>
<stop offset="1" stop-color="#802CFF"/>
</linearGradient>
<linearGradient id="paint1_linear_805_9846" x1="1659.78" y1="66.5156" x2="107.01" y2="338.73" gradientUnits="userSpaceOnUse">
<stop stop-color="#00A3FF"/>
<stop offset="1" stop-color="#802CFF"/>
</linearGradient>
<linearGradient id="paint2_linear_805_9846" x1="1659.78" y1="66.5156" x2="107.01" y2="338.73" gradientUnits="userSpaceOnUse">
<stop stop-color="#00A3FF"/>
<stop offset="1" stop-color="#802CFF"/>
</linearGradient>
<linearGradient id="paint3_linear_805_9846" x1="1659.78" y1="66.5156" x2="107.01" y2="338.73" gradientUnits="userSpaceOnUse">
<stop stop-color="white"/>
<stop offset="0.302083" stop-color="#00A3FF"/>
<stop offset="0.645833" stop-color="#802CFF"/>
<stop offset="0.895833" stop-color="white"/>
</linearGradient>
</defs>
</svg>
