<svg width="1920" height="398" viewBox="0 0 1920 398" fill="none" xmlns="http://www.w3.org/2000/svg">
<mask id="mask0_737_12783" style="mask-type:alpha" maskUnits="userSpaceOnUse" x="0" y="0" width="1920" height="398">
<rect width="1920" height="398" fill="#D9D9D9"/>
</mask>
<g mask="url(#mask0_737_12783)">
<g opacity="0.6" filter="url(#filter0_f_737_12783)">
<path d="M-59.0019 -8.31238C-59.0019 156.038 278.138 238.22 355.333 248.581C403.418 256.749 452.426 265.197 501.453 254.787C550.16 244.444 598.867 215.485 647.574 198.938C696.28 182.39 744.987 178.253 793.694 182.39C844.301 186.688 892.158 199.205 939.814 211.349C1192.14 287.747 1718.07 151.894 1927.6 359.059" stroke="#802CFF" stroke-width="10" stroke-linecap="round"/>
</g>
<g filter="url(#filter1_f_737_12783)">
<path d="M-59.0019 -8.31238C-59.0019 156.038 278.138 238.22 355.333 248.581C403.418 256.749 452.426 265.197 501.453 254.787C550.16 244.444 598.867 215.485 647.574 198.938C696.28 182.39 744.987 178.253 793.694 182.39C844.301 186.688 892.158 199.205 939.814 211.349C1192.14 287.747 1718.07 151.894 1927.6 359.059" stroke="#802CFF" stroke-width="6" stroke-linecap="round"/>
</g>
<path d="M-59.0019 -8.31238C-59.0019 156.038 278.138 238.22 355.333 248.581C403.418 256.749 452.426 265.197 501.453 254.787C550.16 244.444 598.867 215.485 647.574 198.938C696.28 182.39 744.987 178.253 793.694 182.39C844.301 186.688 892.158 199.205 939.814 211.349C1192.14 287.747 1718.07 151.894 1927.6 359.059" stroke="white" stroke-width="2" stroke-linecap="round"/>
<g opacity="0.6" filter="url(#filter2_f_737_12783)">
<path d="M-52.6992 486.119C-8.58748 282.983 238.753 247.88 355.334 273.403C402.99 282.777 450.847 292.439 501.454 295.757C550.161 298.95 598.868 295.757 647.575 282.983C696.281 270.209 744.988 247.855 793.695 239.872C842.722 231.835 891.73 238.357 939.815 244.662C1204.05 295.148 1675.54 360.439 1979.59 212.662" stroke="#802CFF" stroke-width="10" stroke-linecap="round"/>
</g>
<g filter="url(#filter3_f_737_12783)">
<path d="M-52.6992 486.119C-8.58748 282.983 238.753 247.88 355.334 273.403C402.99 282.777 450.847 292.439 501.454 295.757C550.161 298.95 598.868 295.757 647.575 282.983C696.281 270.209 744.988 247.855 793.695 239.872C842.722 231.835 891.73 238.357 939.815 244.662C1204.05 295.148 1675.54 360.439 1979.59 212.662" stroke="#802CFF" stroke-width="6" stroke-linecap="round"/>
</g>
<path d="M-52.6992 486.119C-8.58748 282.983 238.753 247.88 355.334 273.403C402.99 282.777 450.847 292.439 501.454 295.757C550.161 298.95 598.868 295.757 647.575 282.983C696.281 270.209 744.988 247.855 793.695 239.872C842.722 231.835 891.73 238.357 939.815 244.662C1204.05 295.148 1675.54 360.439 1979.59 212.662" stroke="white" stroke-width="2" stroke-linecap="round"/>
<g filter="url(#filter4_f_737_12783)">
<path d="M-16.4609 202.995C202.522 84.2213 232.002 166.142 345.885 210.863C412.502 233.206 441.398 240.282 492.006 245.41C540.712 250.346 589.419 245.41 638.126 225.669C686.832 205.928 735.539 197.68 784.246 185.342C833.273 172.922 882.282 183 930.366 192.745C1009.14 212.486 1193.15 225.669 1299.01 225.669C1404.88 225.669 1785.03 210.863 1947.3 103.557" stroke="url(#paint0_linear_737_12783)" stroke-width="40" stroke-linecap="round"/>
</g>
<g filter="url(#filter5_f_737_12783)">
<path d="M-16.4609 202.995C202.522 84.2213 231.002 166.445 345.885 210.863C418.002 233.206 444.502 245.41 492.006 245.41C539.509 245.41 589.419 245.41 638.126 225.669C686.832 205.928 735.539 197.68 784.246 185.342C833.273 172.922 882.282 183 930.366 192.745C1009.14 212.486 1193.15 225.669 1299.01 225.669C1404.88 225.669 1785.03 210.863 1947.3 103.557" stroke="url(#paint1_linear_737_12783)" stroke-width="10" stroke-linecap="round"/>
</g>
<g filter="url(#filter6_f_737_12783)">
<path d="M-16.4609 202.995C202.522 84.2213 222.502 160.882 345.885 212.616C446.502 240.219 453.002 245.41 492.006 245.41C533.275 245.41 589.419 245.41 638.126 225.669C686.832 205.928 735.539 197.68 784.246 185.342C833.273 172.922 882.282 183 930.366 192.745C1009.14 212.486 1193.15 225.669 1299.01 225.669C1404.88 225.669 1785.03 210.863 1947.3 103.557" stroke="url(#paint2_linear_737_12783)" stroke-width="14" stroke-linecap="round"/>
</g>
<path d="M-16.4609 202.995C202.522 84.2213 234.502 166.445 329.502 206.029C413.639 241.087 468.002 243.726 492.006 245.41C516.009 247.095 589.419 245.41 638.126 225.669C686.832 205.928 735.539 197.68 784.246 185.342C833.273 172.922 882.282 183 930.366 192.745C1009.14 212.486 1193.15 225.669 1299.01 225.669C1404.88 225.669 1785.03 210.863 1947.3 103.557" stroke="url(#paint3_linear_737_12783)" stroke-width="6" stroke-linecap="round"/>
</g>
<defs>
<filter id="filter0_f_737_12783" x="-94" y="-43.3125" width="2056.6" height="437.371" filterUnits="userSpaceOnUse" color-interpolation-filters="sRGB">
<feFlood flood-opacity="0" result="BackgroundImageFix"/>
<feBlend mode="normal" in="SourceGraphic" in2="BackgroundImageFix" result="shape"/>
<feGaussianBlur stdDeviation="15" result="effect1_foregroundBlur_737_12783"/>
</filter>
<filter id="filter1_f_737_12783" x="-68" y="-17.3125" width="2004.6" height="385.371" filterUnits="userSpaceOnUse" color-interpolation-filters="sRGB">
<feFlood flood-opacity="0" result="BackgroundImageFix"/>
<feBlend mode="normal" in="SourceGraphic" in2="BackgroundImageFix" result="shape"/>
<feGaussianBlur stdDeviation="3" result="effect1_foregroundBlur_737_12783"/>
</filter>
<filter id="filter2_f_737_12783" x="-87.6992" y="177.66" width="2102.29" height="343.459" filterUnits="userSpaceOnUse" color-interpolation-filters="sRGB">
<feFlood flood-opacity="0" result="BackgroundImageFix"/>
<feBlend mode="normal" in="SourceGraphic" in2="BackgroundImageFix" result="shape"/>
<feGaussianBlur stdDeviation="15" result="effect1_foregroundBlur_737_12783"/>
</filter>
<filter id="filter3_f_737_12783" x="-61.6992" y="203.662" width="2050.29" height="291.457" filterUnits="userSpaceOnUse" color-interpolation-filters="sRGB">
<feFlood flood-opacity="0" result="BackgroundImageFix"/>
<feBlend mode="normal" in="SourceGraphic" in2="BackgroundImageFix" result="shape"/>
<feGaussianBlur stdDeviation="3" result="effect1_foregroundBlur_737_12783"/>
</filter>
<filter id="filter4_f_737_12783" x="-186.465" y="-66.4453" width="2303.77" height="483.635" filterUnits="userSpaceOnUse" color-interpolation-filters="sRGB">
<feFlood flood-opacity="0" result="BackgroundImageFix"/>
<feBlend mode="normal" in="SourceGraphic" in2="BackgroundImageFix" result="shape"/>
<feGaussianBlur stdDeviation="75" result="effect1_foregroundBlur_737_12783"/>
</filter>
<filter id="filter5_f_737_12783" x="-61.4609" y="58.5566" width="2053.76" height="231.854" filterUnits="userSpaceOnUse" color-interpolation-filters="sRGB">
<feFlood flood-opacity="0" result="BackgroundImageFix"/>
<feBlend mode="normal" in="SourceGraphic" in2="BackgroundImageFix" result="shape"/>
<feGaussianBlur stdDeviation="20" result="effect1_foregroundBlur_737_12783"/>
</filter>
<filter id="filter6_f_737_12783" x="-37.4609" y="82.5566" width="2005.76" height="183.854" filterUnits="userSpaceOnUse" color-interpolation-filters="sRGB">
<feFlood flood-opacity="0" result="BackgroundImageFix"/>
<feBlend mode="normal" in="SourceGraphic" in2="BackgroundImageFix" result="shape"/>
<feGaussianBlur stdDeviation="7" result="effect1_foregroundBlur_737_12783"/>
</filter>
<linearGradient id="paint0_linear_737_12783" x1="1659.78" y1="103.557" x2="93.7957" y2="336.012" gradientUnits="userSpaceOnUse">
<stop stop-color="#00A3FF"/>
<stop offset="1" stop-color="#802CFF"/>
</linearGradient>
<linearGradient id="paint1_linear_737_12783" x1="1659.78" y1="103.557" x2="93.7957" y2="336.012" gradientUnits="userSpaceOnUse">
<stop stop-color="#00A3FF"/>
<stop offset="1" stop-color="#802CFF"/>
</linearGradient>
<linearGradient id="paint2_linear_737_12783" x1="1659.78" y1="103.557" x2="93.7957" y2="336.012" gradientUnits="userSpaceOnUse">
<stop stop-color="#00A3FF"/>
<stop offset="1" stop-color="#802CFF"/>
</linearGradient>
<linearGradient id="paint3_linear_737_12783" x1="1659.78" y1="103.557" x2="93.7957" y2="336.012" gradientUnits="userSpaceOnUse">
<stop stop-color="white"/>
<stop offset="0.302083" stop-color="#00A3FF"/>
<stop offset="0.645833" stop-color="#802CFF"/>
<stop offset="0.895833" stop-color="white"/>
</linearGradient>
</defs>
</svg>
