<svg width="196" height="124" viewBox="0 0 196 124" fill="none" xmlns="http://www.w3.org/2000/svg">
<circle cx="98" cy="63" r="40" fill="#D9D9D9"/>
<circle cx="98" cy="63" r="40" fill="url(#paint0_linear_781_8482)"/>
<path d="M84 64.8571L93.8141 76L112 52" stroke="white" stroke-width="5" stroke-linecap="round" stroke-linejoin="round"/>
<g filter="url(#filter0_f_781_8482)">
<ellipse cx="34" cy="108.504" rx="7" ry="6.96286" fill="white"/>
</g>
<ellipse cx="189" cy="52.8008" rx="7" ry="6.96286" fill="url(#paint1_linear_781_8482)"/>
<ellipse cx="189" cy="52.8008" rx="7" ry="6.96286" fill="url(#paint2_linear_781_8482)"/>
<ellipse cx="39" cy="17.9866" rx="4" ry="3.97878" fill="url(#paint3_linear_781_8482)"/>
<ellipse cx="39" cy="17.9866" rx="4" ry="3.97878" fill="url(#paint4_linear_781_8482)"/>
<ellipse cx="148" cy="5.0555" rx="5" ry="4.97347" fill="white"/>
<ellipse cx="5" cy="65.7313" rx="5" ry="4.97347" fill="#FFE14D"/>
<ellipse cx="150" cy="106.514" rx="4" ry="3.97878" fill="#FFE14D"/>
<defs>
<filter id="filter0_f_781_8482" x="19" y="93.541" width="30" height="29.9258" filterUnits="userSpaceOnUse" color-interpolation-filters="sRGB">
<feFlood flood-opacity="0" result="BackgroundImageFix"/>
<feBlend mode="normal" in="SourceGraphic" in2="BackgroundImageFix" result="shape"/>
<feGaussianBlur stdDeviation="4" result="effect1_foregroundBlur_781_8482"/>
</filter>
<linearGradient id="paint0_linear_781_8482" x1="58" y1="22.2063" x2="92.755" y2="114.517" gradientUnits="userSpaceOnUse">
<stop stop-color="#00A3FF"/>
<stop offset="1" stop-color="#802CFF"/>
</linearGradient>
<linearGradient id="paint1_linear_781_8482" x1="196" y1="45.8379" x2="182.074" y2="59.8377" gradientUnits="userSpaceOnUse">
<stop offset="0.117187" stop-color="#00A3FF"/>
<stop offset="0.838542" stop-color="#802CFF"/>
</linearGradient>
<linearGradient id="paint2_linear_781_8482" x1="189" y1="45.8379" x2="189" y2="59.7636" gradientUnits="userSpaceOnUse">
<stop offset="0.546667" stop-opacity="0"/>
<stop offset="1" stop-opacity="0.3"/>
</linearGradient>
<linearGradient id="paint3_linear_781_8482" x1="43" y1="14.0078" x2="35.0426" y2="22.0077" gradientUnits="userSpaceOnUse">
<stop offset="0.117187" stop-color="#00A3FF"/>
<stop offset="0.838542" stop-color="#802CFF"/>
</linearGradient>
<linearGradient id="paint4_linear_781_8482" x1="39" y1="14.0078" x2="39" y2="21.9654" gradientUnits="userSpaceOnUse">
<stop offset="0.546667" stop-opacity="0"/>
<stop offset="1" stop-opacity="0.3"/>
</linearGradient>
</defs>
</svg>
