<svg width="1920" height="580" viewBox="0 0 1920 580" fill="none" xmlns="http://www.w3.org/2000/svg">
<g opacity="0.6" filter="url(#filter0_f_691_15413)">
<path d="M-49.9999 -18.9989C-49.9999 168.476 287.14 262.221 364.335 274.041C412.42 283.358 461.428 292.995 510.455 281.119C559.162 269.322 607.869 236.288 656.576 217.412C705.282 198.536 753.989 193.817 802.696 198.536C853.303 203.439 901.16 217.717 948.816 231.569C1201.15 318.717 1727.07 163.75 1936.6 400.062" stroke="#802CFF" stroke-width="10" stroke-linecap="round"/>
</g>
<g filter="url(#filter1_f_691_15413)">
<path d="M-49.9999 -18.9989C-49.9999 168.476 287.14 262.221 364.335 274.041C412.42 283.358 461.428 292.995 510.455 281.119C559.162 269.322 607.869 236.288 656.576 217.412C705.282 198.536 753.989 193.817 802.696 198.536C853.303 203.439 901.16 217.717 948.816 231.569C1201.15 318.717 1727.07 163.75 1936.6 400.062" stroke="#802CFF" stroke-width="6" stroke-linecap="round"/>
</g>
<path d="M-49.9999 -18.9989C-49.9999 168.476 287.14 262.221 364.335 274.041C412.42 283.358 461.428 292.995 510.455 281.119C559.162 269.322 607.869 236.288 656.576 217.412C705.282 198.536 753.989 193.817 802.696 198.536C853.303 203.439 901.16 217.717 948.816 231.569C1201.15 318.717 1727.07 163.75 1936.6 400.062" stroke="white" stroke-width="2" stroke-linecap="round"/>
<g opacity="0.6" filter="url(#filter2_f_691_15413)">
<path d="M-43.6992 544.999C0.412515 313.282 247.753 273.24 364.334 302.354C411.99 313.046 459.847 324.068 510.454 327.853C559.161 331.496 607.868 327.853 656.575 313.282C705.281 298.711 753.988 273.211 802.695 264.104C851.722 254.938 900.73 262.376 948.815 269.569C1213.05 327.158 1684.54 401.636 1988.59 233.066" stroke="#802CFF" stroke-width="10" stroke-linecap="round"/>
</g>
<g filter="url(#filter3_f_691_15413)">
<path d="M-43.6992 544.999C0.412515 313.282 247.753 273.24 364.334 302.354C411.99 313.046 459.847 324.068 510.454 327.853C559.161 331.496 607.868 327.853 656.575 313.282C705.281 298.711 753.988 273.211 802.695 264.104C851.722 254.938 900.73 262.376 948.815 269.569C1213.05 327.158 1684.54 401.636 1988.59 233.066" stroke="#802CFF" stroke-width="6" stroke-linecap="round"/>
</g>
<path d="M-43.6992 544.999C0.412515 313.282 247.753 273.24 364.334 302.354C411.99 313.046 459.847 324.068 510.454 327.853C559.161 331.496 607.868 327.853 656.575 313.282C705.281 298.711 753.988 273.211 802.695 264.104C851.722 254.938 900.73 262.376 948.815 269.569C1213.05 327.158 1684.54 401.636 1988.59 233.066" stroke="white" stroke-width="2" stroke-linecap="round"/>
<g filter="url(#filter4_f_691_15413)">
<path d="M-7.46289 222.04C211.52 86.5535 241 180 354.883 231.014C421.5 256.5 450.396 264.573 501.004 270.422C549.71 276.052 598.417 270.422 647.124 247.903C695.83 225.384 744.537 215.976 793.244 201.902C842.271 187.735 891.28 199.231 939.364 210.346C1018.13 232.865 1202.14 247.903 1308.01 247.903C1413.88 247.903 1794.03 231.014 1956.3 108.609" stroke="url(#paint0_linear_691_15413)" stroke-width="40" stroke-linecap="round"/>
</g>
<g filter="url(#filter5_f_691_15413)">
<path d="M-7.46289 222.04C211.52 86.5535 240 180.346 354.883 231.014C427 256.5 453.5 270.422 501.004 270.422C548.507 270.422 598.417 270.422 647.124 247.903C695.83 225.384 744.537 215.976 793.244 201.902C842.271 187.735 891.28 199.231 939.364 210.346C1018.13 232.865 1202.14 247.903 1308.01 247.903C1413.88 247.903 1794.03 231.014 1956.3 108.609" stroke="url(#paint1_linear_691_15413)" stroke-width="10" stroke-linecap="round"/>
</g>
<g filter="url(#filter6_f_691_15413)">
<path d="M-7.46289 222.04C211.52 86.5535 231.5 174 354.883 233.014C455.5 264.5 462 270.422 501.004 270.422C542.273 270.422 598.417 270.422 647.124 247.903C695.83 225.384 744.537 215.976 793.244 201.902C842.271 187.735 891.28 199.231 939.364 210.346C1018.13 232.865 1202.14 247.903 1308.01 247.903C1413.88 247.903 1794.03 231.014 1956.3 108.609" stroke="url(#paint2_linear_691_15413)" stroke-width="14" stroke-linecap="round"/>
</g>
<path d="M-7.46289 222.04C211.52 86.5535 243.5 180.346 338.5 225.5C422.637 265.491 477 268.5 501.004 270.422C525.007 272.344 598.417 270.422 647.124 247.903C695.83 225.384 744.537 215.976 793.244 201.902C842.271 187.735 891.28 199.231 939.364 210.346C1018.13 232.865 1202.14 247.903 1308.01 247.903C1413.88 247.903 1794.03 231.014 1956.3 108.609" stroke="url(#paint3_linear_691_15413)" stroke-width="6" stroke-linecap="round"/>
<defs>
<filter id="filter0_f_691_15413" x="-85" y="-54" width="2056.6" height="489.062" filterUnits="userSpaceOnUse" color-interpolation-filters="sRGB">
<feFlood flood-opacity="0" result="BackgroundImageFix"/>
<feBlend mode="normal" in="SourceGraphic" in2="BackgroundImageFix" result="shape"/>
<feGaussianBlur stdDeviation="15" result="effect1_foregroundBlur_691_15413"/>
</filter>
<filter id="filter1_f_691_15413" x="-59" y="-28" width="2004.6" height="437.062" filterUnits="userSpaceOnUse" color-interpolation-filters="sRGB">
<feFlood flood-opacity="0" result="BackgroundImageFix"/>
<feBlend mode="normal" in="SourceGraphic" in2="BackgroundImageFix" result="shape"/>
<feGaussianBlur stdDeviation="3" result="effect1_foregroundBlur_691_15413"/>
</filter>
<filter id="filter2_f_691_15413" x="-78.7002" y="198.066" width="2102.29" height="381.934" filterUnits="userSpaceOnUse" color-interpolation-filters="sRGB">
<feFlood flood-opacity="0" result="BackgroundImageFix"/>
<feBlend mode="normal" in="SourceGraphic" in2="BackgroundImageFix" result="shape"/>
<feGaussianBlur stdDeviation="15" result="effect1_foregroundBlur_691_15413"/>
</filter>
<filter id="filter3_f_691_15413" x="-52.7002" y="224.066" width="2050.29" height="329.934" filterUnits="userSpaceOnUse" color-interpolation-filters="sRGB">
<feFlood flood-opacity="0" result="BackgroundImageFix"/>
<feBlend mode="normal" in="SourceGraphic" in2="BackgroundImageFix" result="shape"/>
<feGaussianBlur stdDeviation="3" result="effect1_foregroundBlur_691_15413"/>
</filter>
<filter id="filter4_f_691_15413" x="-177.466" y="-61.3906" width="2303.76" height="503.844" filterUnits="userSpaceOnUse" color-interpolation-filters="sRGB">
<feFlood flood-opacity="0" result="BackgroundImageFix"/>
<feBlend mode="normal" in="SourceGraphic" in2="BackgroundImageFix" result="shape"/>
<feGaussianBlur stdDeviation="75" result="effect1_foregroundBlur_691_15413"/>
</filter>
<filter id="filter5_f_691_15413" x="-52.4639" y="63.6094" width="2053.76" height="251.812" filterUnits="userSpaceOnUse" color-interpolation-filters="sRGB">
<feFlood flood-opacity="0" result="BackgroundImageFix"/>
<feBlend mode="normal" in="SourceGraphic" in2="BackgroundImageFix" result="shape"/>
<feGaussianBlur stdDeviation="20" result="effect1_foregroundBlur_691_15413"/>
</filter>
<filter id="filter6_f_691_15413" x="-28.4639" y="87.6094" width="2005.76" height="203.812" filterUnits="userSpaceOnUse" color-interpolation-filters="sRGB">
<feFlood flood-opacity="0" result="BackgroundImageFix"/>
<feBlend mode="normal" in="SourceGraphic" in2="BackgroundImageFix" result="shape"/>
<feGaussianBlur stdDeviation="7" result="effect1_foregroundBlur_691_15413"/>
</filter>
<linearGradient id="paint0_linear_691_15413" x1="1668.78" y1="108.609" x2="94.9394" y2="313.414" gradientUnits="userSpaceOnUse">
<stop stop-color="#00A3FF"/>
<stop offset="1" stop-color="#802CFF"/>
</linearGradient>
<linearGradient id="paint1_linear_691_15413" x1="1668.78" y1="108.609" x2="94.9394" y2="313.414" gradientUnits="userSpaceOnUse">
<stop stop-color="#00A3FF"/>
<stop offset="1" stop-color="#802CFF"/>
</linearGradient>
<linearGradient id="paint2_linear_691_15413" x1="1668.78" y1="108.609" x2="94.9394" y2="313.414" gradientUnits="userSpaceOnUse">
<stop stop-color="#00A3FF"/>
<stop offset="1" stop-color="#802CFF"/>
</linearGradient>
<linearGradient id="paint3_linear_691_15413" x1="1668.78" y1="108.609" x2="94.9394" y2="313.414" gradientUnits="userSpaceOnUse">
<stop stop-color="white"/>
<stop offset="0.302083" stop-color="#00A3FF"/>
<stop offset="0.645833" stop-color="#802CFF"/>
<stop offset="0.895833" stop-color="white"/>
</linearGradient>
</defs>
</svg>
