<svg width="120" height="64" viewBox="0 0 120 64" fill="none" xmlns="http://www.w3.org/2000/svg">
<circle cx="32" cy="32" r="31.5" fill="#1A1A1A" stroke="white" stroke-dasharray="3 3"/>
<path d="M21 21H42C42.5523 21 43 21.4477 43 22V42C43 42.5523 42.5523 43 42 43H21" stroke="#4D4D4D" stroke-width="2" stroke-linecap="round"/>
<rect x="37" y="15" width="12" height="12" rx="1" fill="white"/>
<rect x="37" y="37" width="12" height="12" rx="1" fill="url(#paint0_linear_10808_34693)"/>
<rect x="15" y="37" width="12" height="12" rx="1" fill="#4D4D4D"/>
<path d="M16 13V15.8889H19.2742V29H23V13H16Z" fill="#FFE27D"/>
<circle cx="88" cy="32" r="32" fill="white"/>
<g clip-path="url(#clip0_10808_34693)">
<path d="M99.666 18H76.3327C76.0233 18 75.7265 18.1229 75.5077 18.3417C75.2889 18.5605 75.166 18.8572 75.166 19.1667V25C75.166 26.2377 75.6577 27.4247 76.5329 28.2998C77.408 29.175 78.595 29.6667 79.8327 29.6667H79.926C80.1793 31.4084 80.9884 33.0218 82.233 34.2663C83.4776 35.5109 85.0909 36.3201 86.8327 36.5733V40.1667H89.166V36.5733C90.9078 36.3201 92.5211 35.5109 93.7657 34.2663C95.0103 33.0218 95.8194 31.4084 96.0727 29.6667H96.166C97.4037 29.6667 98.5907 29.175 99.4658 28.2998C100.341 27.4247 100.833 26.2377 100.833 25V19.1667C100.833 18.8572 100.71 18.5605 100.491 18.3417C100.272 18.1229 99.9754 18 99.666 18ZM77.4993 25V20.3333H79.8327V27.3333C79.2138 27.3333 78.6204 27.0875 78.1828 26.6499C77.7452 26.2123 77.4993 25.6188 77.4993 25ZM98.4993 25C98.4993 25.6188 98.2535 26.2123 97.8159 26.6499C97.3783 27.0875 96.7849 27.3333 96.166 27.3333V20.3333H98.4993V25Z" fill="black"/>
<path d="M90.332 41.3333H85.6654C79.832 41.3333 79.832 46 79.832 46H96.1654C96.1654 46 96.1654 41.3333 90.332 41.3333Z" fill="black"/>
</g>
<defs>
<linearGradient id="paint0_linear_10808_34693" x1="49" y1="37" x2="34.9983" y2="40.1764" gradientUnits="userSpaceOnUse">
<stop offset="0.046875" stop-color="#00A3FF"/>
<stop offset="0.926448" stop-color="#802CFF"/>
</linearGradient>
<clipPath id="clip0_10808_34693">
<rect width="28" height="28" fill="white" transform="translate(74 18)"/>
</clipPath>
</defs>
</svg>
