<svg width="120" height="64" viewBox="0 0 120 64" fill="none" xmlns="http://www.w3.org/2000/svg">
<circle cx="32" cy="32" r="31.5" fill="#1A1A1A" stroke="white" stroke-dasharray="3 3"/>
<circle cx="22" cy="22" r="10" fill="white"/>
<circle cx="44" cy="20" r="8" fill="url(#paint0_linear_10808_34628)"/>
<circle cx="40" cy="42" r="10.5" stroke="#FFE27D" stroke-width="3"/>
<circle cx="17" cy="43" r="7" fill="#4D4D4D"/>
<circle cx="88" cy="32" r="32" fill="white"/>
<path fill-rule="evenodd" clip-rule="evenodd" d="M87.5178 18.0528C84.19 18.0493 80.9698 19.2584 78.4343 21.4634C75.8987 23.6683 74.2135 26.725 73.6807 30.0857C73.1479 33.4464 73.8023 36.8913 75.5266 39.8032C77.2509 42.7151 79.9324 44.9036 83.0907 45.9765C83.787 46.1084 84.0449 45.6598 84.0449 45.2817C84.0449 44.9035 84.0449 44.0416 84.0449 42.8455C80.1507 43.725 79.3254 40.9282 79.3254 40.9282C79.0659 40.0614 78.5147 39.3167 77.7695 38.8262C76.5058 37.9467 77.8726 37.9467 77.8726 37.9467C78.3156 38.0108 78.7385 38.1771 79.1094 38.4331C79.4802 38.689 79.7893 39.028 80.0131 39.4243C80.2034 39.7771 80.4598 40.0881 80.7677 40.3393C81.0757 40.5905 81.4291 40.777 81.8077 40.8881C82.1863 40.9993 82.5826 41.0328 82.9738 40.9869C83.3651 40.9409 83.7437 40.8164 84.0878 40.6204C84.1418 39.8969 84.4467 39.2169 84.9475 38.7031C81.8356 38.3425 78.5689 37.1112 78.5689 31.6232C78.5476 30.2011 79.0616 28.825 80.0045 27.7799C79.5837 26.5435 79.6328 25.1904 80.1421 23.9893C80.1421 23.9893 81.3198 23.6023 83.9933 25.458C86.289 24.8132 88.7122 24.8132 91.0079 25.458C93.6814 23.6023 94.8505 23.9893 94.8505 23.9893C95.3651 25.1887 95.4173 26.5428 94.9967 27.7799C95.9396 28.825 96.4536 30.2011 96.4322 31.6232C96.4322 37.1288 93.157 38.3337 90.0365 38.6591C90.3711 39.0032 90.6295 39.4169 90.7941 39.8722C90.9588 40.3274 91.0258 40.8135 90.9907 41.2976C90.9907 43.2149 90.9907 44.7628 90.9907 45.2289C90.9907 45.695 91.24 46.0556 91.9535 45.9237C95.1018 44.8407 97.7717 42.6487 99.4869 39.7388C101.202 36.8288 101.851 33.3901 101.319 30.0359C100.786 26.6818 99.1056 23.6304 96.5779 21.4259C94.0502 19.2214 90.8393 18.0073 87.5178 18V18.0528Z" fill="black"/>
<defs>
<linearGradient id="paint0_linear_10808_34628" x1="52" y1="12" x2="33.3311" y2="16.2352" gradientUnits="userSpaceOnUse">
<stop offset="0.151042" stop-color="#00A3FF"/>
<stop offset="0.926448" stop-color="#802CFF"/>
</linearGradient>
</defs>
</svg>
