<svg width="116" height="64" viewBox="0 0 116 64" fill="none" xmlns="http://www.w3.org/2000/svg">
<circle cx="32" cy="32" r="31.5" fill="#1A1A1A" stroke="white" stroke-dasharray="3 3"/>
<rect x="14" y="15" width="36" height="4" rx="2" fill="#FFE27D"/>
<rect x="14" y="25" width="26" height="4" rx="2" fill="#4D4D4D"/>
<rect x="14" y="35" width="36" height="4" rx="2" fill="url(#paint0_linear_10808_34671)"/>
<rect x="14" y="45" width="26" height="4" rx="2" fill="white"/>
<circle cx="84" cy="32" r="32" fill="white"/>
<g clip-path="url(#clip0_10808_34671)">
<path d="M84 25C83.3078 25 82.6311 24.7947 82.0555 24.4101C81.4799 24.0256 81.0313 23.4789 80.7664 22.8394C80.5015 22.1999 80.4322 21.4961 80.5673 20.8172C80.7023 20.1383 81.0356 19.5146 81.5251 19.0251C82.0146 18.5356 82.6383 18.2023 83.3172 18.0673C83.9961 17.9322 84.6999 18.0015 85.3394 18.2664C85.9789 18.5313 86.5256 18.9799 86.9101 19.5555C87.2947 20.1311 87.5 20.8078 87.5 21.5C87.5 22.4283 87.1313 23.3185 86.4749 23.9749C85.8185 24.6313 84.9283 25 84 25Z" fill="black"/>
<path d="M89.8327 30.8333H78.166V28.5C78.166 27.8812 78.4118 27.2877 78.8494 26.8501C79.287 26.4125 79.8805 26.1667 80.4993 26.1667H87.4993C88.1182 26.1667 88.7117 26.4125 89.1493 26.8501C89.5869 27.2877 89.8327 27.8812 89.8327 28.5V30.8333Z" fill="black"/>
<path d="M71.166 33.1667V35.5H74.666V44.8333C74.666 45.1427 74.7889 45.4395 75.0077 45.6583C75.2265 45.8771 75.5233 46 75.8327 46H92.166C92.4754 46 92.7722 45.8771 92.991 45.6583C93.2098 45.4395 93.3327 45.1427 93.3327 44.8333V35.5H96.8327V33.1667H71.166ZM82.8327 44.1497L78.8497 40.1667L80.4993 38.517L82.8327 40.8503L87.4993 36.1837L89.149 37.8333L82.8327 44.1497Z" fill="black"/>
</g>
<defs>
<linearGradient id="paint0_linear_10808_34671" x1="50" y1="35" x2="41.4547" y2="52.447" gradientUnits="userSpaceOnUse">
<stop offset="0.130208" stop-color="#00A3FF"/>
<stop offset="0.926448" stop-color="#802CFF"/>
</linearGradient>
<clipPath id="clip0_10808_34671">
<rect width="28" height="28" fill="white" transform="translate(70 18)"/>
</clipPath>
</defs>
</svg>
